<?xml version="1.0" encoding="iso-8859-1"?>
<!-- Generator: Adobe Illustrator 19.0.0, SVG Export Plug-In . SVG Version: 6.00 Build 0)  -->
<svg version="1.1" id="Layer_1" xmlns="http://www.w3.org/2000/svg" xmlns:xlink="http://www.w3.org/1999/xlink" x="0px" y="0px"
	 width="26px" height="26px" viewBox="-50 52 26 26" style="enable-background:new -50 52 26 26;" xml:space="preserve">
<g>
	<circle style="fill:#BFBFBF;" cx="-37" cy="65" r="13"/>
	<path style="fill:#FFFFFF;" d="M-39,60h-2c-0.553,0-1,0.447-1,1v8c0,0.553,0.447,1,1,1h2c0.553,0,1-0.447,1-1v-8
		C-38,60.447-38.447,60-39,60z M-33,60h-2c-0.553,0-1,0.447-1,1v8c0,0.553,0.447,1,1,1h2c0.553,0,1-0.447,1-1v-8
		C-32,60.447-32.447,60-33,60z"/>
</g>
</svg>
