<?xml version="1.0" encoding="iso-8859-1"?>
<!-- Generator: Adobe Illustrator 19.0.0, SVG Export Plug-In . SVG Version: 6.00 Build 0)  -->
<svg version="1.1" id="Layer_1" xmlns="http://www.w3.org/2000/svg" xmlns:xlink="http://www.w3.org/1999/xlink" x="0px" y="0px"
	 width="34px" height="34px" viewBox="0 0 34 34" style="enable-background:new 0 0 34 34;" xml:space="preserve">
<g id="XMLID_1_">
	<path id="XMLID_9_" style="fill:#29D0BB;" d="M18.102,33.251c0,0.397-0.228,0.49-0.507,0.208L1.826,17.499
		c-0.279-0.282-0.279-0.744,0-1.026l15.769-15.96c0.279-0.282,0.507-0.188,0.507,0.208V33.251z"/>
	<path id="XMLID_7_" style="fill:#00A2F1;" d="M33.493,14.719c0.279,0.282,0.182,0.513-0.214,0.513H22.452
		c-0.397,0-0.721-0.324-0.721-0.721V3.535c0-0.397,0.228-0.49,0.507-0.208L33.493,14.719z"/>
	<path id="XMLID_5_" style="fill:#B297E8;" d="M22.625,25.836c-0.371,0.375-0.674,0.251-0.674-0.277v-6.035
		c0-0.527,0.431-0.959,0.959-0.959h5.94c0.527,0,0.656,0.307,0.285,0.682L22.625,25.836z"/>
</g>
</svg>
