<?xml version="1.0" encoding="iso-8859-1"?>
<!-- Generator: Adobe Illustrator 22.0.1, SVG Export Plug-In . SVG Version: 6.00 Build 0)  -->
<svg version="1.1" id="Layer_1" xmlns="http://www.w3.org/2000/svg"  x="0px" y="0px"
	 width="20.001px" height="20px" viewBox="0 0 20.001 20" style="enable-background:new 0 0 20.001 20;" xml:space="preserve">
<style type="text/css">
	.st0{fill:#010101;}
</style>
<path id="XMLID_13_" class="st0" d="M0,8.25v3.125l2.125,0.5c0.125,0.75,0.5,1.375,0.75,2L1.75,15.749L4,17.999l1.875-1.125
	c0.625,0.375,1.25,0.625,2,0.875l0.375,2.25h3.125l0.5-2c0.75-0.125,1.375-0.5,2-0.75l1.875,1.125l2.25-2.25l-1.125-1.875
	c0.375-0.625,0.625-1.25,0.875-2l2.25-0.5V8.625l-2-0.5c-0.125-0.75-0.5-1.375-0.75-2l1.125-1.875l-2.25-2.25l-1.875,1.125
	c-0.625-0.375-1.25-0.625-2-0.875l-0.5-2.25H8.624L7.999,2.126c-0.75,0.125-1.375,0.375-2,0.75L4.125,1.751l-2.25,2.25L3,5.875
	c-0.375,0.625-0.625,1.25-0.875,2L0,8.25z M10.124,4.376c3.125,0,5.499,2.625,5.499,5.624c0,3.125-2.625,5.499-5.624,5.499
	c-3.125,0-5.499-2.625-5.499-5.624S6.999,4.376,10.124,4.376z"/>
</svg>
