<?xml version="1.0" encoding="iso-8859-1"?>
<!-- Generator: Adobe Illustrator 19.0.0, SVG Export Plug-In . SVG Version: 6.00 Build 0)  -->
<svg version="1.1" id="Layer_1" xmlns="http://www.w3.org/2000/svg" xmlns:xlink="http://www.w3.org/1999/xlink" x="0px" y="0px"
	 width="20px" height="20px" viewBox="-3.182 -2.988 20 20" style="enable-background:new -3.182 -2.988 20 20;"
	 xml:space="preserve">
<path style="fill:#555555;" d="M13.574,2.378c-3.118-3.118-8.195-3.118-11.314,0c-1.64,1.64-2.468,3.882-2.322,6.163l-0.506-0.506
	c-0.391-0.391-1.023-0.391-1.414,0c-0.391,0.391-0.391,1.023,0,1.414l2.121,2.121c0.391,0.391,1.023,0.391,1.414,0l2.121-2.121
	c0.391-0.391,0.391-1.023,0-1.414c-0.391-0.391-1.023-0.391-1.414,0L1.931,8.363C1.838,6.672,2.456,5.01,3.674,3.792
	c2.341-2.341,6.145-2.341,8.485,0s2.341,6.145,0,8.485c-0.39,0.39-0.391,1.023,0,1.414s1.024,0.39,1.414,0
	C16.692,10.573,16.692,5.496,13.574,2.378z"/>
</svg>
