<?xml version="1.0" encoding="utf-8"?>
<!-- Generator: Adobe Illustrator 19.0.0, SVG Export Plug-In . SVG Version: 6.00 Build 0)  -->
<svg version="1.1" id="Layer_1" xmlns="http://www.w3.org/2000/svg" xmlns:xlink="http://www.w3.org/1999/xlink" x="0px" y="0px"
	 width="16px" height="16px" viewBox="-289 412.9 16 16" style="enable-background:new -289 412.9 16 16;" xml:space="preserve">
<style type="text/css">
	.st0{fill:#888888;}
</style>
<g>
	<path class="st0" d="M-282.4,414.9c-3.4,0-6.1,0.8-6.1,1.7v0.9l4.4,4.1l0,0v4c0,0,0.8,1.3,1.8,1.3s1.8-1.3,1.8-1.3v-4l4.4-4.1v-0.9
		C-276.2,415.7-279,414.9-282.4,414.9L-282.4,414.9z M-282.4,415.8c2.7,0,4.5,0.5,5.1,0.9c-0.6,0.4-2.4,0.9-5.1,0.9
		s-4.5-0.5-5.1-0.9C-286.9,416.3-285.1,415.8-282.4,415.8z"/>
	<path class="st0" d="M-273.5,422.4v1h-2v2h-1v-2h-2v-1h2v-2h1v2H-273.5z"/>
</g>
</svg>
