<?xml version="1.0" encoding="iso-8859-1"?>
<!-- Generator: Adobe Illustrator 19.0.0, SVG Export Plug-In . SVG Version: 6.00 Build 0)  -->
<svg version="1.1" id="Layer_1" xmlns="http://www.w3.org/2000/svg" xmlns:xlink="http://www.w3.org/1999/xlink" x="0px" y="0px"
	 width="16px" height="16px" viewBox="-289 412.89 16 16" style="enable-background:new -289 412.89 16 16;" xml:space="preserve">
<path style="fill:#888888;" d="M-276.926,418.179c-0.373-0.08-0.74,0.033-1.006,0.267l-0.006-0.01l-3.064,2.523l-3.063-2.522
	l-0.007,0.008c-0.267-0.234-0.633-0.345-1.006-0.266c-0.63,0.133-1.03,0.75-0.896,1.378c0.064,0.304,0.243,0.553,0.48,0.715
	l3.764,3.105l0.01-0.012c0.262,0.21,0.61,0.312,0.967,0.237c0.183-0.037,0.337-0.125,0.474-0.235l0.007,0.01l3.767-3.104
	c0.235-0.163,0.414-0.41,0.48-0.716c0.13-0.627-0.27-1.245-0.9-1.378L-276.926,418.179L-276.926,418.179z"/>
</svg>
