<?xml version="1.0" encoding="iso-8859-1"?>
<!-- Generator: Adobe Illustrator 19.0.0, SVG Export Plug-In . SVG Version: 6.00 Build 0)  -->
<svg version="1.1" id="Layer_1" xmlns="http://www.w3.org/2000/svg" xmlns:xlink="http://www.w3.org/1999/xlink" x="0px" y="0px"
	 width="16px" height="16px" viewBox="-289 412.89 16 16" style="enable-background:new -289 412.89 16 16;" xml:space="preserve">
<path style="fill:#888888;" d="M-276.924,423.601h0.001c0.63-0.133,1.03-0.751,0.9-1.378c-0.066-0.306-0.245-0.553-0.48-0.716
	l-3.767-3.104l-0.007,0.01c-0.137-0.11-0.291-0.198-0.474-0.235c-0.357-0.075-0.705,0.027-0.967,0.237l-0.01-0.012l-3.764,3.105
	c-0.237,0.162-0.416,0.411-0.48,0.715c-0.134,0.628,0.266,1.245,0.896,1.378c0.373,0.079,0.739-0.032,1.006-0.266l0.007,0.008
	l3.063-2.522l3.064,2.523l0.006-0.01C-277.664,423.568-277.297,423.681-276.924,423.601L-276.924,423.601z"/>
</svg>
